<mxfile host="app.diagrams.net" modified="2024-03-26T10:28:32.603Z" agent="Mozilla/5.0 (Windows NT 10.0; Win64; x64) AppleWebKit/537.36 (KHTML, like Gecko) Chrome/123.0.0.0 Safari/537.36" etag="NG7Z4NOrOMZo01WjG2jq" version="24.1.0" type="device">
  <diagram name="Страница — 1" id="-6n_d_haw0-0_lDa-lM8">
    <mxGraphModel dx="1756" dy="851" grid="1" gridSize="10" guides="1" tooltips="1" connect="1" arrows="1" fold="1" page="1" pageScale="1" pageWidth="827" pageHeight="1169" math="0" shadow="0">
      <root>
        <mxCell id="0" />
        <mxCell id="1" parent="0" />
        <mxCell id="o8k4YIXuOai8mmNfQqHz-26" value="" style="rounded=0;whiteSpace=wrap;html=1;dashed=1;fillColor=none;" parent="1" vertex="1">
          <mxGeometry x="20" y="90" width="290" height="210" as="geometry" />
        </mxCell>
        <mxCell id="o8k4YIXuOai8mmNfQqHz-3" style="rounded=0;orthogonalLoop=1;jettySize=auto;html=1;exitX=1;exitY=0.5;exitDx=0;exitDy=0;" parent="1" source="o8k4YIXuOai8mmNfQqHz-1" target="o8k4YIXuOai8mmNfQqHz-2" edge="1">
          <mxGeometry relative="1" as="geometry" />
        </mxCell>
        <mxCell id="o8k4YIXuOai8mmNfQqHz-12" value="potentially" style="rounded=0;orthogonalLoop=1;jettySize=auto;html=1;exitX=1;exitY=1;exitDx=0;exitDy=0;entryX=0;entryY=0;entryDx=0;entryDy=0;dashed=1;" parent="1" source="o8k4YIXuOai8mmNfQqHz-1" target="o8k4YIXuOai8mmNfQqHz-11" edge="1">
          <mxGeometry relative="1" as="geometry" />
        </mxCell>
        <mxCell id="o8k4YIXuOai8mmNfQqHz-25" style="rounded=0;orthogonalLoop=1;jettySize=auto;html=1;exitX=0.5;exitY=1;exitDx=0;exitDy=0;entryX=1;entryY=0;entryDx=0;entryDy=0;" parent="1" source="o8k4YIXuOai8mmNfQqHz-1" target="o8k4YIXuOai8mmNfQqHz-13" edge="1">
          <mxGeometry relative="1" as="geometry" />
        </mxCell>
        <mxCell id="o8k4YIXuOai8mmNfQqHz-1" value="Cloud Client" style="ellipse;whiteSpace=wrap;html=1;" parent="1" vertex="1">
          <mxGeometry x="369" y="110" width="120" height="80" as="geometry" />
        </mxCell>
        <mxCell id="o8k4YIXuOai8mmNfQqHz-18" style="rounded=0;orthogonalLoop=1;jettySize=auto;html=1;exitX=1;exitY=0.5;exitDx=0;exitDy=0;entryX=0;entryY=0.5;entryDx=0;entryDy=0;" parent="1" source="o8k4YIXuOai8mmNfQqHz-2" target="o8k4YIXuOai8mmNfQqHz-17" edge="1">
          <mxGeometry relative="1" as="geometry" />
        </mxCell>
        <mxCell id="o8k4YIXuOai8mmNfQqHz-22" style="rounded=0;orthogonalLoop=1;jettySize=auto;html=1;exitX=0;exitY=1;exitDx=0;exitDy=0;entryX=1;entryY=0.5;entryDx=0;entryDy=0;" parent="1" source="o8k4YIXuOai8mmNfQqHz-2" target="o8k4YIXuOai8mmNfQqHz-13" edge="1">
          <mxGeometry relative="1" as="geometry" />
        </mxCell>
        <mxCell id="o8k4YIXuOai8mmNfQqHz-2" value="YandexDisk" style="ellipse;whiteSpace=wrap;html=1;" parent="1" vertex="1">
          <mxGeometry x="549" y="110" width="120" height="80" as="geometry" />
        </mxCell>
        <mxCell id="o8k4YIXuOai8mmNfQqHz-14" style="rounded=0;orthogonalLoop=1;jettySize=auto;html=1;exitX=0.5;exitY=1;exitDx=0;exitDy=0;entryX=0;entryY=0;entryDx=0;entryDy=0;" parent="1" source="o8k4YIXuOai8mmNfQqHz-9" target="o8k4YIXuOai8mmNfQqHz-13" edge="1">
          <mxGeometry relative="1" as="geometry" />
        </mxCell>
        <mxCell id="o8k4YIXuOai8mmNfQqHz-19" style="rounded=0;orthogonalLoop=1;jettySize=auto;html=1;exitX=1;exitY=1;exitDx=0;exitDy=0;entryX=0;entryY=0;entryDx=0;entryDy=0;" parent="1" source="o8k4YIXuOai8mmNfQqHz-9" target="o8k4YIXuOai8mmNfQqHz-15" edge="1">
          <mxGeometry relative="1" as="geometry" />
        </mxCell>
        <mxCell id="o8k4YIXuOai8mmNfQqHz-21" style="rounded=0;orthogonalLoop=1;jettySize=auto;html=1;exitX=1;exitY=0.5;exitDx=0;exitDy=0;" parent="1" source="o8k4YIXuOai8mmNfQqHz-9" target="o8k4YIXuOai8mmNfQqHz-1" edge="1">
          <mxGeometry relative="1" as="geometry" />
        </mxCell>
        <mxCell id="o8k4YIXuOai8mmNfQqHz-9" value="tg_bot" style="ellipse;whiteSpace=wrap;html=1;" parent="1" vertex="1">
          <mxGeometry x="50" y="110" width="120" height="80" as="geometry" />
        </mxCell>
        <mxCell id="o8k4YIXuOai8mmNfQqHz-23" style="rounded=0;orthogonalLoop=1;jettySize=auto;html=1;exitX=0;exitY=1;exitDx=0;exitDy=0;entryX=1;entryY=0.5;entryDx=0;entryDy=0;dashed=1;" parent="1" source="o8k4YIXuOai8mmNfQqHz-11" target="o8k4YIXuOai8mmNfQqHz-13" edge="1">
          <mxGeometry relative="1" as="geometry" />
        </mxCell>
        <mxCell id="o8k4YIXuOai8mmNfQqHz-11" value="Another Cloud" style="ellipse;whiteSpace=wrap;html=1;dashed=1;" parent="1" vertex="1">
          <mxGeometry x="549" y="280" width="120" height="80" as="geometry" />
        </mxCell>
        <mxCell id="o8k4YIXuOai8mmNfQqHz-13" value="Config" style="ellipse;whiteSpace=wrap;html=1;" parent="1" vertex="1">
          <mxGeometry x="130" y="410" width="120" height="80" as="geometry" />
        </mxCell>
        <mxCell id="o8k4YIXuOai8mmNfQqHz-20" style="rounded=0;orthogonalLoop=1;jettySize=auto;html=1;exitX=1;exitY=0.5;exitDx=0;exitDy=0;entryX=0;entryY=1;entryDx=0;entryDy=0;" parent="1" source="o8k4YIXuOai8mmNfQqHz-15" target="o8k4YIXuOai8mmNfQqHz-1" edge="1">
          <mxGeometry relative="1" as="geometry" />
        </mxCell>
        <mxCell id="o8k4YIXuOai8mmNfQqHz-24" style="rounded=0;orthogonalLoop=1;jettySize=auto;html=1;exitX=0.5;exitY=1;exitDx=0;exitDy=0;entryX=0.5;entryY=0;entryDx=0;entryDy=0;" parent="1" source="o8k4YIXuOai8mmNfQqHz-15" target="o8k4YIXuOai8mmNfQqHz-13" edge="1">
          <mxGeometry relative="1" as="geometry" />
        </mxCell>
        <mxCell id="o8k4YIXuOai8mmNfQqHz-15" value="CommandCenter" style="ellipse;whiteSpace=wrap;html=1;" parent="1" vertex="1">
          <mxGeometry x="180" y="210" width="120" height="80" as="geometry" />
        </mxCell>
        <mxCell id="o8k4YIXuOai8mmNfQqHz-17" value="http requester" style="ellipse;whiteSpace=wrap;html=1;" parent="1" vertex="1">
          <mxGeometry x="720" y="110" width="120" height="80" as="geometry" />
        </mxCell>
        <mxCell id="o8k4YIXuOai8mmNfQqHz-28" value="" style="rounded=0;whiteSpace=wrap;html=1;dashed=1;fillColor=none;" parent="1" vertex="1">
          <mxGeometry x="540" y="90" width="310" height="110" as="geometry" />
        </mxCell>
      </root>
    </mxGraphModel>
  </diagram>
</mxfile>
